<svg width="512" height="512" viewBox="0 0 512 512" xmlns="http://www.w3.org/2000/svg">
  <path d="M24.774 41.29A24.714 24.714 0 0 0 0 66.064v49.549a24.714 24.714 0 0 0 24.774 24.774h49.549a24.714 24.714 0 0 0 24.774-24.774V66.064A24.714 24.714 0 0 0 74.323 41.29zm156.903 16.516c-18.271 0-33.032 14.761-33.032 33.032s14.761 33.033 33.032 33.033h297.291c18.271 0 33.032-14.762 33.032-33.033s-14.761-33.032-33.032-33.032zm0 165.161c-18.271 0-33.032 14.762-33.032 33.033s14.761 33.032 33.032 33.032h297.291C497.239 289.032 512 274.271 512 256s-14.761-33.033-33.032-33.033zm0 165.162c-18.271 0-33.032 14.761-33.032 33.032s14.761 33.032 33.032 33.032h297.291c18.271 0 33.032-14.761 33.032-33.032s-14.761-33.032-33.032-33.032zM0 231.225v49.549a24.714 24.714 0 0 0 24.774 24.774h49.549a24.714 24.714 0 0 0 24.774-24.774v-49.549a24.714 24.714 0 0 0-24.774-24.774H24.774A24.714 24.714 0 0 0 0 231.225m24.774 140.388A24.714 24.714 0 0 0 0 396.387v49.548a24.714 24.714 0 0 0 24.774 24.774h49.549a24.714 24.714 0 0 0 24.774-24.774v-49.548a24.714 24.714 0 0 0-24.774-24.774z" fill="currentColor"/>
</svg>