<svg width="512" height="512" viewBox="0 0 512 512" xmlns="http://www.w3.org/2000/svg">
  <path d="M80 0h72c44.183 0 80 35.817 80 80v72c0 44.183-35.817 80-80 80H80c-44.183 0-80-35.817-80-80V80C0 35.817 35.817 0 80 0Zm280 0h72c44.183 0 80 35.817 80 80v72c0 44.183-35.817 80-80 80h-72c-44.183 0-80-35.817-80-80V80c0-44.183 35.817-80 80-80ZM80 280h72c44.183 0 80 35.817 80 80v72c0 44.183-35.817 80-80 80H80c-44.183 0-80-35.817-80-80v-72c0-44.183 35.817-80 80-80Zm280 0h72c44.183 0 80 35.817 80 80v72c0 44.183-35.817 80-80 80h-72c-44.183 0-80-35.817-80-80v-72c0-44.183 35.817-80 80-80Z" fill="currentColor"/>
</svg>