<svg width="512" height="512" viewBox="0 0 512 512" xmlns="http://www.w3.org/2000/svg">
  <path d="M276 23.624c-3.815-7.44-11.539-12.19-19.915-12.19s-16.1 4.75-19.915 12.19l-68.494 134.2L18.87 181.455a22.36 22.36 0 0 0-17.773 15.169c-2.61 8.003-.47 16.751 5.4 22.707l106.459 106.556-23.452 148.806c-1.303 8.282 2.141 16.658 8.934 21.59a22.33 22.33 0 0 0 23.266 1.861l134.381-68.307 134.289 68.307c7.445 3.816 16.472 3.072 23.265-1.861 6.794-4.932 10.237-13.215 8.934-21.59l-23.545-148.806 106.463-106.556c5.956-5.956 8.004-14.704 5.398-22.707s-9.399-13.867-17.775-15.169l-148.713-23.631z" fill="currentColor" opacity="0.5"/>
</svg>