<svg width="512" height="512" viewBox="0 0 512 512" xmlns="http://www.w3.org/2000/svg">
  <path d="M256 56.941c-71.804 0-129.3 32.703-171.155 71.626-41.59 38.656-69.405 84.778-82.646 116.503a28.27 28.27 0 0 0 0 21.861c13.241 31.725 41.056 77.935 82.646 116.503C126.7 422.268 184.196 455.06 256 455.06s129.3-32.703 171.155-71.626c41.59-38.657 69.405-84.778 82.646-116.503a28.27 28.27 0 0 0 0-21.861c-13.241-31.725-41.056-77.935-82.646-116.503C385.3 89.732 327.804 56.941 256 56.941M128.033 256c0-70.648 57.319-127.966 127.967-127.966S383.967 185.352 383.967 256c0 70.649-57.319 127.967-127.967 127.967S128.033 326.649 128.033 256M256 199.126c0 31.37-25.504 56.874-56.874 56.874-10.22 0-19.817-2.666-28.171-7.464-.888 9.686-.088 19.639 2.578 29.503 12.174 45.499 59.006 72.514 104.506 60.34 45.499-12.175 72.514-59.007 60.34-104.506-10.842-40.612-49.321-66.472-89.844-62.917a56.7 56.7 0 0 1 7.465 28.17" fill="currentColor"/>
</svg>