<svg width="512" height="512" viewBox="0 0 512 512" xmlns="http://www.w3.org/2000/svg">
  <path d="M394.971 0C431.28 0 460.8 29.52 460.8 65.829v150.145C434.442 200.727 403.84 192 371.2 192c-25.588 0-49.922 5.363-71.941 15.025-4.664-5.948-11.789-9.54-19.488-9.54v.104c-8.639 0-16.56 4.526-21.086 11.827L195.53 312.789l-27.153-38.879c-4.628-6.584-12.137-10.491-20.262-10.491s-15.635 3.907-20.263 10.491L70.25 356.194c-5.244 7.508-5.861 17.384-1.644 25.508 4.217 8.126 12.754 13.269 21.909 13.269h103.048a178 178 0 0 0 22.411 65.829H65.828C29.52 460.8 0 431.281 0 394.971V65.829C0 29.52 29.52 0 65.828 0zM82.286 131.657c0 27.257 22.114 49.372 49.371 49.372s49.372-22.114 49.372-49.372-22.115-49.371-49.372-49.371-49.371 22.114-49.371 49.371M230.4 371.2c0-77.769 63.029-140.8 140.8-140.8 77.77 0 140.8 63.031 140.8 140.8S448.97 512 371.2 512s-140.8-63.031-140.8-140.8m91.848-30.304 30.251 30.251-30.251 30.247c-5.165 5.118-5.112 13.477 0 18.647 5.118 5.172 13.477 5.172 18.647 0l30.25-30.249 30.249 30.249c5.116 5.172 13.478 5.116 18.646 0 5.171-5.115 5.171-13.476 0-18.647l-30.25-30.247 30.25-30.251c5.171-5.117 5.115-13.477 0-18.647-5.116-5.167-13.475-5.167-18.646 0l-30.249 30.252-30.25-30.252c-5.116-5.167-13.475-5.167-18.647 0-5.165 5.116-5.165 13.476 0 18.647" fill="currentColor"/>
</svg>