<svg width="512" height="512" viewBox="0 0 512 512" xmlns="http://www.w3.org/2000/svg">
  <path d="M372.889 113.689c-14.756 0-29.067 4-41.6 11.289-14.045-14.222-30.4-26.134-48.445-35.111C307.911 68.533 339.822 56.8 372.889 56.8 449.689 56.8 512 119.022 512 195.911a139.07 139.07 0 0 1-40.711 98.311l-63.2 63.2a139.07 139.07 0 0 1-98.311 40.711c-76.8 0-139.111-62.222-139.111-139.111 0-1.333 0-2.666.089-4 .444-15.733 13.511-28.089 29.244-27.644 15.733.444 28.089 13.511 27.644 29.244v2.311c0 45.423 36.8 82.223 82.223 82.223A82.15 82.15 0 0 0 368 317.067l63.2-63.2c15.378-15.378 24.089-36.356 24.089-58.134 0-45.422-36.8-82.222-82.222-82.222zM244.622 182.4c-1.689-.711-3.378-1.689-4.889-2.756a81.65 81.65 0 0 0-37.422-9.066 82.14 82.14 0 0 0-58.133 24.089l-63.2 63.2C65.6 273.244 56.889 294.222 56.889 316c0 45.422 36.8 82.222 82.222 82.222a82.6 82.6 0 0 0 41.511-11.2c14.045 14.222 30.4 26.134 48.534 35.111-25.067 21.245-56.889 33.067-90.045 33.067C62.311 455.2 0 392.978 0 316.089c0-36.889 14.67-72.267 40.71-98.311l63.201-63.2a139.07 139.07 0 0 1 98.311-40.711c76.978 0 139.111 62.755 139.111 139.466v3.467c-.355 15.733-13.422 28.089-29.155 27.733s-28.089-13.422-27.734-29.155v-2.045c0-29.955-16-56.266-39.822-70.755z" fill="currentColor"/>
</svg>