<svg width="512" height="512" viewBox="0 0 512 512" xmlns="http://www.w3.org/2000/svg">
  <path d="M512 256v2.7c-.4 36.492-33.593 61.288-70.086 61.288h-97.881c-26.495 0-47.991 21.495-47.991 47.99 0 3.4.4 6.699 1 9.898 2.1 10.198 6.499 19.996 10.798 29.894 6.099 13.798 12.098 27.495 12.098 41.992 0 31.794-21.596 60.688-53.39 61.988-3.499.1-6.999.2-10.598.2C114.578 511.95 0 397.372 0 256S114.678.05 256.05.05 512 114.628 512 256m-383.925 31.994c0-17.697-14.297-31.994-31.994-31.994s-31.994 14.297-31.994 31.994 14.298 31.994 31.994 31.994c17.697 0 31.994-14.298 31.994-31.994m0-95.981c17.697 0 31.994-14.298 31.994-31.994 0-17.697-14.297-31.994-31.994-31.994s-31.994 14.297-31.994 31.994 14.297 31.994 31.994 31.994m159.969-95.982c0-17.696-14.297-31.993-31.994-31.993s-31.994 14.297-31.994 31.993c0 17.697 14.297 31.994 31.994 31.994s31.994-14.297 31.994-31.994m95.981 95.982c17.697 0 31.994-14.298 31.994-31.994 0-17.697-14.297-31.994-31.994-31.994s-31.994 14.297-31.994 31.994 14.298 31.994 31.994 31.994" fill="currentColor"/>
</svg>