<svg width="512" height="512" viewBox="0 0 512 512" xmlns="http://www.w3.org/2000/svg">
  <path d="M267.727 9.73c12.974-12.973 33.936-12.973 46.909 0L502.27 197.364c12.973 12.973 12.973 33.935 0 46.909s-33.935 12.973-46.909 0l-21.622-21.623-90.738 105.837c11.654 42.732 6.889 89.567-15.758 130.392l-7.036 12.607c-5.058 9.162-14.074 15.245-24.408 16.784-10.334 1.54-20.742-2.126-28.072-9.455L33.185 244.273c-7.331-7.33-10.849-17.738-9.382-28 1.466-10.26 7.623-19.349 16.784-24.406l12.534-7.11c40.825-22.648 87.586-27.486 130.391-15.758L289.349 78.26l-21.622-21.622c-12.973-12.973-12.973-33.936 0-46.908M91.82 373.271l46.909 46.908-82.09 82.09c-12.974 12.973-33.936 12.973-46.909 0-12.973-12.972-12.973-33.935 0-46.908z" fill="currentColor"/>
</svg>