<svg width="512" height="512" viewBox="0 0 512 512" xmlns="http://www.w3.org/2000/svg">
  <path d="M320.661 29.527c-15.11-4.35-30.842 4.45-35.197 19.558L171.696 447.273c-4.355 15.109 4.444 30.841 19.554 35.197 15.11 4.355 30.842-4.445 35.197-19.554L340.215 64.728c4.355-15.11-4.444-30.841-19.554-35.201m57.417 120.971c-11.11 11.111-11.11 29.153 0 40.264L443.317 256l-65.239 65.239c-11.11 11.11-11.11 29.153 0 40.263s29.153 11.11 40.263 0l85.326-85.326c11.111-11.11 11.111-29.153 0-40.263l-85.326-85.326c-11.11-11.11-29.153-11.11-40.263 0zm-244.156 0c-11.11-11.11-29.153-11.11-40.263 0L8.333 235.824c-11.111 11.11-11.111 29.153 0 40.263l85.326 85.326c11.11 11.111 29.153 11.111 40.263 0 11.11-11.11 11.11-29.153 0-40.263L68.683 256l65.15-65.238c11.11-11.111 11.11-29.153 0-40.264z" fill="currentColor"/>
</svg>