<svg width="512" height="512" viewBox="0 0 512 512" xmlns="http://www.w3.org/2000/svg">
  <path d="M47.878 4.471c5.163-5.163 13.195-5.928 19.314-1.912l113.682 75.724c8.509 5.641 13.576 15.202 13.576 25.432v47.424l86.816 86.815c31.838-14.342 70.656-8.51 96.758 17.688L498.59 376.208c17.879 17.879 17.879 46.945 0 64.92l-57.462 57.462c-17.88 17.879-46.945 17.879-64.92 0L255.642 378.024c-26.198-26.197-32.03-64.92-17.688-96.758l-86.815-86.816h-47.424c-10.23 0-19.791-5.067-25.432-13.576L2.559 67.192c-4.016-6.024-3.251-14.151 1.912-19.314zm138.637 290.18c-6.024 35.281 2.199 72.569 25.05 102.495l-90.735 90.831c-26.867 26.867-70.466 26.867-97.333 0-26.866-26.867-26.866-70.465 0-97.332l129.458-129.553 33.655 33.559zM347.429 10.877c19.217 0 37.67 3.537 54.594 10.039 9.561 3.633 11.282 15.776 4.111 23.042L351.922 98.17c-2.868 2.868-4.493 6.788-4.493 10.804v39.583c0 8.414 6.884 15.298 15.297 15.298h39.583c4.016 0 7.936-1.626 10.805-4.494l54.211-54.212c7.267-7.17 19.409-5.449 23.043 4.112 6.501 16.923 10.039 35.376 10.039 54.594 0 41.304-16.445 78.688-43.025 106.224l-46.946-46.945c-31.647-31.552-75.054-43.695-115.785-36.715l-54.307-54.307v-28.397l-.191-4.78c-.765-11.856-4.207-23.234-10.04-33.369 28.11-33.464 70.179-54.689 117.316-54.785z" fill="currentColor"/>
</svg>