<svg width="512" height="512" viewBox="0 0 512 512" xmlns="http://www.w3.org/2000/svg">
  <path d="M198.374 24c2.823-13.93 15.153-24 29.459-24h56.282c14.306 0 26.635 10.07 29.459 24l13.647 65.882a174 174 0 0 1 36.988 21.458l63.812-21.176c13.553-4.518 28.424 1.129 35.577 13.553l28.141 48.753a30.03 30.03 0 0 1-6.118 37.553l-50.165 44.612c.848 6.964 1.224 14.117 1.224 21.365s-.471 14.4-1.224 21.364l50.259 44.706c10.73 9.506 13.177 25.224 6.118 37.553l-28.141 48.753c-7.153 12.33-22.024 18.071-35.577 13.553l-63.812-21.176c-11.388 8.564-23.811 15.717-36.988 21.459L313.762 488c-2.918 14.024-15.247 24-29.459 24h-56.282c-14.306 0-26.636-10.071-29.459-24l-13.553-65.788c-13.271-5.647-25.6-12.895-36.988-21.459l-64.095 21.176c-13.553 4.518-28.423-1.129-35.576-13.553l-28.141-48.753a30.03 30.03 0 0 1 6.117-37.553l50.259-44.706c-.847-6.964-1.223-14.117-1.223-21.364 0-7.248.47-14.401 1.223-21.365l-50.259-44.706c-10.729-9.506-13.176-25.224-6.117-37.553l28.141-48.753c7.153-12.424 22.023-18.071 35.576-13.553l63.812 21.176c11.389-8.564 23.812-15.717 36.989-21.459zm57.6 307.294c41.6-.188 75.2-33.977 75.012-75.577s-33.977-75.2-75.577-75.012-75.2 33.977-75.012 75.577 33.977 75.2 75.577 75.012" fill="currentColor"/>
</svg>