<svg width="512px" height="144.4px" viewBox="0 0 512 144.4" xmlns="http://www.w3.org/2000/svg">
  <path d="M 101.62 95.599 C 102.397 101.423 104.079 106.632 107.056 111.324 C 114.044 122.356 124.204 127.598 137.21 127.501 C 147.887 127.436 157.043 123.553 164.937 116.436 C 169.079 112.682 174.903 113.394 177.814 117.891 C 179.917 121.127 179.497 125.042 176.585 127.954 C 167.752 136.786 157.237 142.286 144.781 143.807 C 136.628 144.81 128.507 144.616 120.58 142.157 C 102.526 136.56 90.523 124.589 85.185 106.6 C 78.94 85.473 82.273 65.834 96.994 48.945 C 106.991 37.524 119.933 32.088 135.172 32.347 C 148.307 32.574 159.761 37.039 168.982 46.583 C 176.65 54.51 180.888 64.184 182.829 74.925 C 183.573 79.002 183.897 83.143 184.091 87.284 C 184.318 91.846 180.759 95.405 176.197 95.632 C 175.55 95.664 174.903 95.632 174.255 95.632 L 103.918 95.632 C 103.271 95.599 102.591 95.599 101.62 95.599 M 164.776 79.325 C 164.29 75.119 163.093 71.237 161.508 67.451 C 152.061 45.224 127.504 44.642 114.886 55.48 C 108.253 61.175 104.338 68.454 102.397 76.866 C 102.203 77.643 102.138 78.419 101.976 79.325 L 164.776 79.325 Z M 313.734 87.705 C 313.766 59.104 335.929 32.218 369.836 32.283 C 401.446 32.315 425.679 56.807 425.614 88.643 C 425.55 119.93 400.831 144.325 369.157 144.357 C 338.647 144.357 313.669 118.862 313.734 87.705 M 406.461 89.193 C 406.299 78.096 403.096 68.843 396.075 61.013 C 381.742 44.998 355.568 45.612 341.817 62.113 C 330.364 75.863 329.555 100.129 342.853 115.077 C 354.694 128.407 375.983 131.157 390.478 120.803 C 401.511 112.909 406.137 101.747 406.461 89.193 M 220.91 48.007 C 222.948 46.065 224.598 44.415 226.313 42.862 C 234.596 35.291 244.496 32.185 255.529 32.283 C 264.232 32.38 272.418 34.321 279.665 39.368 C 288.66 45.645 293.545 54.542 295.454 65.122 C 296.069 68.551 296.392 72.078 296.425 75.572 C 296.522 95.373 296.457 115.141 296.457 134.942 C 296.457 138.728 294.063 142.319 290.536 143.613 C 286.848 144.972 283.386 144.422 280.539 141.575 C 278.533 139.601 277.659 137.11 277.659 134.263 C 277.692 115.918 277.756 97.605 277.594 79.261 C 277.562 75.637 277.044 71.916 276.171 68.422 C 273.421 57.713 265.753 51.21 254.785 49.948 C 246.987 49.042 239.578 50.271 233.075 54.995 C 224.437 61.272 220.975 70.202 220.942 80.555 C 220.878 98.608 220.942 116.694 220.91 134.748 C 220.91 141.672 214.18 146.169 207.774 143.548 C 204.377 142.157 202.08 138.469 202.08 134.327 L 202.08 41.795 C 202.08 38.139 203.762 35.356 206.868 33.544 C 210.071 31.668 213.404 31.765 216.542 33.738 C 219.228 35.453 220.845 37.944 220.91 41.245 C 220.942 43.38 220.91 45.451 220.91 48.007 M 40.18 34.483 L 65.578 34.483 C 69.072 34.483 71.919 35.615 73.731 38.753 C 76.74 44.027 73.667 50.401 67.649 51.307 C 66.71 51.436 65.707 51.468 64.737 51.468 L 40.18 51.468 L 40.18 111.032 C 40.18 114.915 40.795 118.636 43.415 121.806 C 45.551 124.395 48.43 125.495 51.569 125.98 C 56.26 126.724 60.919 126.336 65.481 124.912 C 69.816 123.521 74.087 125.462 75.543 129.507 C 77.031 133.616 74.928 137.66 70.916 139.601 C 65.481 142.254 59.787 143.419 53.769 143.742 C 38.174 144.519 24.165 133.195 21.803 117.73 C 21.479 115.724 21.382 113.653 21.382 111.615 C 21.35 92.364 21.35 73.113 21.35 53.863 L 21.35 51.63 C 20.638 51.598 20.056 51.533 19.506 51.533 C 15.947 51.533 12.388 51.598 8.829 51.501 C 3.005 51.339 -0.748 46.971 0.126 41.471 C 0.74 37.589 4.267 34.677 8.7 34.547 C 12.194 34.45 15.72 34.515 19.215 34.515 C 21.35 34.515 21.35 34.515 21.35 32.283 L 21.35 9.796 C 21.35 4.296 25.33 0.09 30.636 0.025 C 35.942 -0.039 40.115 4.199 40.148 9.764 C 40.18 17.303 40.148 24.873 40.148 32.412 C 40.18 33.027 40.18 33.674 40.18 34.483 M 463.21 54.963 C 465.992 51.792 468.451 48.654 471.298 45.871 C 477.802 39.53 485.437 35.097 494.432 33.318 C 497.149 32.768 499.997 32.638 502.779 32.768 C 508.053 33.059 512 37.459 512 42.636 C 512 47.748 507.988 52.083 502.779 52.569 C 498.929 52.924 495.014 52.989 491.229 53.798 C 480.843 56.03 473.499 62.307 468.775 71.722 C 464.634 79.94 463.242 88.805 463.21 97.897 C 463.145 110.029 463.21 122.162 463.21 134.295 C 463.21 139.925 459.069 144.292 453.73 144.26 C 448.359 144.228 444.315 140.054 444.315 134.424 L 444.315 41.6 C 444.315 37.394 447.292 33.577 451.304 32.574 C 455.704 31.474 459.975 33.285 461.883 37.33 C 462.628 38.883 463.048 40.695 463.113 42.442 C 463.307 46.033 463.178 49.657 463.178 53.28 C 463.21 53.83 463.21 54.348 463.21 54.963" fill="currentColor"/>
</svg>