<svg width="512" height="226" viewBox="0 0 512 226" xmlns="http://www.w3.org/2000/svg">
  <path d="M280.403 176.505h-27.036a5.495 5.495 0 0 1-5.536-5.536V55.23a5.495 5.495 0 0 1 5.536-5.536h27.036a5.495 5.495 0 0 1 5.536 5.536v115.739a5.495 5.495 0 0 1-5.536 5.536m-88.575-33.344h42.485a5.495 5.495 0 0 1 5.536 5.536v22.272a5.495 5.495 0 0 1-5.536 5.536h-80.464a5.495 5.495 0 0 1-5.536-5.536V55.23a5.495 5.495 0 0 1 5.536-5.536h27.036a5.495 5.495 0 0 1 5.536 5.536v82.395c0 3.09 2.446 5.536 5.407 5.536m188.222-16.35c-15.32 15.191-33.087 14.805-46.605 10.814-.901-.257-1.802.386-1.802 1.416v31.928a5.495 5.495 0 0 1-5.536 5.536h-27.036a5.495 5.495 0 0 1-5.536-5.536V55.23a5.495 5.495 0 0 1 5.536-5.536h47.635c35.147 0 65.916 44.545 33.344 77.117m-22.53-22.788c10.171-14.419-5.793-30.383-20.212-20.213a6 6 0 0 0-1.288 1.288c-10.17 14.419 5.794 30.383 20.213 20.213.386-.387.901-.773 1.287-1.288m152.818-26.65-38.108 38.108a2.13 2.13 0 0 0-.643 1.545v54.201c0 2.832-2.318 5.278-5.279 5.278h-26.263c-2.833 0-5.279-2.317-5.279-5.278v-54.201c0-.515-.257-1.159-.643-1.545l-38.108-38.108c-2.06-2.188-2.06-5.536 0-7.596l18.539-18.539c2.188-2.059 5.536-2.059 7.595 0l29.611 29.611c.773.773 2.189.773 2.961 0l29.611-29.611c2.189-2.059 5.536-2.059 7.596 0l18.539 18.539c2.06 2.06 2.06 5.536-.129 7.596M136.34 176.505H91.537c-1.03 0-2.06-.515-2.703-1.544l-13.518-39.782c-1.674-2.704-5.922-1.545-5.922 1.674v36.434a3.19 3.19 0 0 1-3.219 3.218H26.393a3.19 3.19 0 0 1-3.218-3.218V100.29c0-21.758 3.605-38.881 20.341-52.656 5.407-4.506 12.36-9.399 25.749-9.399v47.249c0 3.347 4.506 4.506 6.051 1.545 0 0 1.287-1.931 3.347-4.763 10.557-14.548 15.707-24.719 33.216-28.71l22.015-5.021c2.446 0 3.991 2.703 2.703 4.892l-34.889 57.419a3.14 3.14 0 0 0 0 3.348l37.207 57.419c1.416 2.06-.129 4.892-2.575 4.892M64.373 50.595a4.34 4.34 0 0 0-4.378-4.377 4.34 4.34 0 0 0-4.377 4.377 4.34 4.34 0 0 0 4.377 4.377 4.34 4.34 0 0 0 4.378-4.377m11.844-11.458 11.587 6.308-11.587 7.725c-.773.515-1.674 0-1.674-.902V40.167c0-.773.901-1.288 1.674-1.03m-56.393 1.548c-4.246 3.989-7.592 6.176-10.167 7.335C5.151 49.951.13 46.732.001 41.84c-.386-15.706 22.144-21.629 22.144-21.629C8.241 16.607 15.45 5.277 15.45 5.277c14.677-20.599 54.201 25.749 54.201 25.749-48.794.386-51.883 50.21-52.27 49.308-7.377-19.714 2.21-39.302 2.443-39.649" fill="currentColor"/>
</svg>