<svg width="512" height="512" viewBox="0 0 512 512" xmlns="http://www.w3.org/2000/svg">
  <path d="m171.347 21.24-8.437 25.31H69.82c-17.163 0-31.03 13.86-31.03 31.03 0 17.16 13.867 31.03 31.03 31.03h372.361c17.163 0 31.03-13.87 31.03-31.03 0-17.17-13.867-31.03-31.03-31.03h-93.09l-8.437-25.31C336.388 8.53 324.557 0 311.176 0H200.825c-13.382 0-25.212 8.53-29.478 21.24m270.834 133.914H69.82l20.461 313.307C91.832 492.994 112.195 512 136.729 512h238.543c24.533 0 44.897-19.006 46.448-43.539z" fill="currentColor"/>
</svg>