<svg width="512" height="512" viewBox="0 0 512 512" xmlns="http://www.w3.org/2000/svg">
  <path d="M36.484 6.27c-8.354-8.36-21.863-8.36-30.128 0-8.265 8.35-8.354 21.86-.089 30.215l469.249 469.249c8.354 8.354 21.863 8.354 30.128 0s8.354-21.862 0-30.128l-85.673-85.673c2.399-2.133 4.799-4.266 7.109-6.399 41.593-38.66 69.41-84.785 82.652-116.512a28.26 28.26 0 0 0 0-21.863c-13.242-31.728-41.059-77.942-82.652-116.513-41.859-38.837-99.36-71.631-171.169-71.631-50.48 0-93.85 16.175-129.754 39.282zm145.307 145.394c20.885-14.93 46.569-23.729 74.209-23.729 70.654 0 127.977 57.323 127.977 127.977 0 27.64-8.798 53.235-23.729 74.209l-30.839-30.839c11.287-19.018 15.108-42.392 8.976-65.499-12.175-45.503-59.011-72.52-104.514-60.345-7.643 2.044-14.842 5.066-21.33 8.888l-30.839-30.839zM289.15 379.535c-10.576 2.844-21.685 4.355-33.15 4.355-70.654 0-127.977-57.324-127.977-127.978 0-11.464 1.511-22.573 4.355-33.149l-70.654-70.654c-28.973 32.705-48.881 67.365-59.456 92.872a28.26 28.26 0 0 0 0 21.863c13.242 31.727 41.059 77.941 82.651 116.512 41.86 38.838 99.36 71.632 171.17 71.632 33.149 0 63.277-7.021 90.206-18.308l-57.057-57.056z" fill="currentColor"/>
</svg>