<svg width="512" height="512" viewBox="0 0 512 512" xmlns="http://www.w3.org/2000/svg">
  <path d="M73.143 54.857c-10.057 0-18.286 8.229-18.286 18.286v365.714c0 10.057 8.229 18.286 18.286 18.286h365.714c10.057 0 18.286-8.229 18.286-18.286V73.143c0-10.057-8.229-18.286-18.286-18.286zM0 73.143C0 32.8 32.8 0 73.143 0h365.714C479.2 0 512 32.8 512 73.143v365.714C512 479.2 479.2 512 438.857 512H73.143C32.8 512 0 479.2 0 438.857zm155.429 155.428h201.142A27.363 27.363 0 0 1 384 256a27.363 27.363 0 0 1-27.429 27.429H155.429A27.363 27.363 0 0 1 128 256a27.363 27.363 0 0 1 27.429-27.429" fill="currentColor"/>
</svg>