<svg width="512" height="512" viewBox="0 0 512 512" xmlns="http://www.w3.org/2000/svg">
  <path d="M310.924 256h54.921v54.924h-54.921Zm-109.848 0H256v54.924h-54.924ZM91.23 256h54.925v54.924H91.23Zm274.615 54.924h54.925v54.921h-54.925Zm-109.845 0h54.924v54.921H256Zm-109.845 0h54.921v54.921h-54.921Zm164.769 54.921h54.921v54.925h-54.921Zm-109.848 0H256v54.925h-54.924Zm-109.846 0h54.925v54.925H91.23Zm329.54 54.925v-54.925h36.373v-54.921H420.77V256h36.373V73.143c0-10.057-8.229-18.286-18.286-18.286H73.143c-10.057 0-18.286 8.229-18.286 18.286v237.781H91.23v54.921H54.857v54.925H91.23v36.373h54.925V420.77h54.921v36.373H256V420.77h54.924v36.373h54.921V420.77zv36.373h18.087c10.057 0 18.286-8.229 18.286-18.286V420.77ZM438.857 0C479.2 0 512 32.8 512 73.143v365.714C512 479.2 479.2 512 438.857 512H73.143C32.8 512 0 479.2 0 438.857V73.143C0 32.8 32.8 0 73.143 0Z" fill="currentColor"/>
</svg>