<svg width="512" height="512" viewBox="0 0 512 512" xmlns="http://www.w3.org/2000/svg">
  <path d="M512 142.22c0-31.377-25.511-56.885-56.889-56.885H182.489c-15.111 0-29.6 5.952-40.267 16.619L8.356 235.909C3.022 241.243 0 248.443 0 255.998c0 7.556 3.022 14.756 8.356 20.089l133.866 133.956c10.667 10.666 25.156 16.622 40.267 16.622h272.622c31.378 0 56.889-25.511 56.889-56.889zm-259.467 53.423c8.356-8.356 21.867-8.356 30.134 0l30.133 30.133 30.133-30.133c8.356-8.356 21.867-8.356 30.134 0s8.355 21.866 0 30.133l-30.134 30.133 30.134 30.134c8.355 8.355 8.355 21.866 0 30.133s-21.867 8.355-30.134 0L312.8 286.043l-30.133 30.133c-8.356 8.355-21.867 8.355-30.134 0s-8.355-21.867 0-30.133l30.134-30.134-30.134-30.133c-8.355-8.356-8.355-21.867 0-30.133" fill="currentColor"/>
</svg>